<svg width="17" height="16" viewBox="0 0 17 16" fill="none" xmlns="http://www.w3.org/2000/svg">
<g clip-path="url(#clip0_15_738)">
<path d="M7.13229 10.9579C7.14787 8.25944 9.34844 6.07843 12.0211 6.1117C14.7046 6.14498 16.8584 8.32327 16.8469 10.9932C16.8354 13.6631 14.6172 15.8692 11.9507 15.8482C9.2841 15.8271 7.11604 13.6237 7.13229 10.9579ZM11.4386 9.89656C11.4386 10.2245 11.4427 10.5532 11.4386 10.8811C11.4298 11.0117 11.462 11.1417 11.5306 11.253C11.5992 11.3643 11.7009 11.4513 11.8213 11.5018C12.3469 11.7591 12.8684 12.0253 13.394 12.282C13.7252 12.4436 14.0429 12.3634 14.1844 12.0952C14.3327 11.8128 14.2068 11.4909 13.8674 11.3144C13.5281 11.1378 13.1901 10.9558 12.8379 10.8051C12.5995 10.7019 12.4993 10.5701 12.5142 10.2965C12.5413 9.82118 12.525 9.34587 12.5203 8.87056C12.5169 8.50592 12.2934 8.25944 11.9825 8.25944C11.6716 8.25944 11.4488 8.52019 11.4406 8.87735C11.4332 9.21822 11.4413 9.55773 11.4413 9.89656H11.4386Z" fill="white"/>
<path d="M3.90904 1.79294C3.90904 1.40318 3.9043 1.07521 3.90904 0.747249C3.91513 0.39348 4.12035 0.171447 4.43192 0.168052C4.74348 0.164657 4.96902 0.386691 4.98324 0.732312C4.99747 1.07793 4.98324 1.41133 4.98324 1.7685H8.22144C8.22144 1.40997 8.17877 1.03651 8.23905 0.682065C8.26953 0.49873 8.45241 0.286196 8.62377 0.196565C8.83847 0.083848 9.07621 0.202682 9.19609 0.423363C9.25526 0.555873 9.28441 0.69988 9.28143 0.845032C9.29362 1.14719 9.2855 1.45072 9.2855 1.77257H12.5251C12.5251 1.46566 12.5251 1.15466 12.5251 0.843672C12.5291 0.414532 12.7282 0.17009 13.0669 0.169411C13.4056 0.168732 13.5993 0.400949 13.6013 0.840953C13.6013 1.14447 13.6013 1.44732 13.6013 1.79158C14.1255 1.79158 14.6173 1.79158 15.111 1.79158C16.1791 1.79565 16.8449 2.45838 16.8483 3.52173C16.8483 4.34787 16.8483 5.17423 16.8483 6.00082C16.8483 6.40823 16.6133 6.67984 16.2909 6.67034C15.9685 6.66083 15.7707 6.39873 15.7687 6.00626C15.7687 5.70205 15.7687 5.39514 15.7687 5.0631H1.74233C1.74233 5.22538 1.74978 5.39106 1.74233 5.55675C1.72608 5.87996 1.51069 6.09521 1.21132 6.09996C1.14046 6.10293 1.06974 6.09135 1.00351 6.06592C0.937284 6.04049 0.87694 6.00175 0.826192 5.95208C0.775444 5.90241 0.735366 5.84286 0.708416 5.77709C0.681465 5.71133 0.668211 5.64073 0.669474 5.56964C0.659314 4.80031 0.637639 4.02895 0.676923 3.26098C0.719593 2.42782 1.41519 1.8072 2.25437 1.79498C2.7908 1.78683 3.32994 1.79294 3.90904 1.79294Z" fill="white"/>
<path d="M0.662028 10.5931C0.662028 9.68734 0.662028 8.7822 0.662028 7.87707C0.662028 7.45879 0.871318 7.19805 1.19778 7.19058C1.52424 7.18311 1.73963 7.45133 1.73963 7.8696C1.73963 9.64637 1.73963 11.4231 1.73963 13.1999C1.73963 13.7431 1.90218 13.9034 2.44673 13.904C3.74535 13.904 5.04398 13.904 6.3426 13.904C6.46606 13.8998 6.58957 13.9108 6.71038 13.9366C7.00704 14.0113 7.1425 14.2191 7.10864 14.5172C7.07613 14.801 6.90138 14.9776 6.61488 14.9783C5.10177 14.9837 3.58867 14.9993 2.07692 14.9674C1.29531 14.9504 0.669478 14.2116 0.66135 13.3785C0.655254 12.4489 0.662705 11.5207 0.662028 10.5931Z" fill="white"/>
<path d="M4.44481 8.26071C4.16237 8.26071 3.87994 8.27021 3.59818 8.26071C3.29474 8.24713 3.12406 8.0699 3.09832 7.7691C3.07259 7.46829 3.23786 7.23471 3.52842 7.21909C4.13579 7.18661 4.74448 7.18775 5.35173 7.22249C5.65245 7.23947 5.7974 7.48799 5.7703 7.782C5.74321 8.07602 5.56711 8.25731 5.2569 8.26275C4.98666 8.26682 4.71573 8.26071 4.44481 8.26071Z" fill="white"/>
<path d="M4.43531 11.5111C4.16439 11.5111 3.89347 11.5186 3.62255 11.5111C3.31369 11.4996 3.10847 11.2986 3.09221 11.0127C3.07528 10.7092 3.26967 10.4518 3.58461 10.4396C4.14542 10.4179 4.70827 10.4192 5.26975 10.4396C5.34039 10.4431 5.40963 10.4606 5.47345 10.4911C5.53727 10.5217 5.59438 10.5646 5.64147 10.6175C5.68856 10.6704 5.72467 10.7322 5.74772 10.7992C5.77077 10.8663 5.78028 10.9372 5.7757 11.008C5.75877 11.2843 5.53796 11.4928 5.2413 11.5131C5.21895 11.5131 5.19592 11.5131 5.17357 11.5131L4.43531 11.5111Z" fill="white"/>
<path d="M4.43525 9.8848C4.16433 9.8848 3.8934 9.89023 3.62248 9.8848C3.31905 9.87733 3.13888 9.71232 3.09959 9.41355C3.06031 9.11479 3.23506 8.8459 3.53646 8.8296C4.13342 8.79769 4.73165 8.79769 5.32861 8.8296C5.62595 8.84522 5.81695 9.13312 5.77293 9.41016C5.72687 9.70146 5.55618 9.87801 5.24869 9.88548C4.97709 9.88887 4.70617 9.88412 4.43525 9.8848Z" fill="white"/>
</g>
<defs>
<clipPath id="clip0_15_738">
<rect width="16.2025" height="15.6962" fill="white" transform="translate(0.651855 0.151855)"/>
</clipPath>
</defs>
</svg>
