<svg width="17" height="17" viewBox="0 0 17 17" fill="none" xmlns="http://www.w3.org/2000/svg">
<g clip-path="url(#clip0_15_735)">
<path d="M8.73148 16.3538C4.25828 16.3538 0.647306 12.708 0.651737 8.19931C0.655536 3.7527 4.30892 0.147428 8.80618 0.15186C13.2515 0.155658 16.8587 3.81031 16.8536 8.30567C16.8492 12.739 13.199 16.3557 8.73148 16.3538ZM5.18635 9.58382L5.32942 10.0067C5.58264 10.7499 5.97893 11.3994 6.5892 11.9014C7.96167 13.0372 10.0634 13.058 11.5847 12.3528C11.8113 12.2477 11.8512 12.0629 11.7784 11.8508C11.7056 11.6387 11.6144 11.4412 11.5252 11.2393C11.341 10.8233 11.2757 10.7961 10.8187 10.9056C10.6756 10.9405 10.5338 10.9791 10.3914 11.0145C9.64308 11.2044 8.8948 11.2678 8.15602 10.9784C7.52296 10.7303 7.16402 10.2479 6.95321 9.58571H8.45926C9.21387 9.58571 9.21387 9.58571 9.20247 8.81845C9.19741 8.47343 9.12651 8.39936 8.76883 8.39683C8.20984 8.39303 7.65085 8.39683 7.09185 8.39683C6.98107 8.39683 6.87028 8.38417 6.7405 8.37594C6.74936 8.19551 6.75633 8.05371 6.76393 7.88658H7.13933C7.70909 7.88658 8.27884 7.89924 8.84859 7.87519C8.96761 7.87012 9.18285 7.72072 9.17905 7.64728C9.16196 7.34278 9.36517 6.98511 9.02585 6.74391C8.96634 6.7015 8.86189 6.71542 8.77833 6.71479C8.38836 6.71479 7.99776 6.71479 7.6078 6.71479H7.02791C7.40395 5.79432 8.08449 5.367 8.97014 5.36447C9.6032 5.36447 10.2363 5.51577 10.8693 5.62593C11.2593 5.6943 11.3441 5.67404 11.5093 5.3094C11.5834 5.1467 11.6556 4.98337 11.7233 4.81814C11.8968 4.39905 11.8284 4.24142 11.3973 4.06607C10.6539 3.76035 9.84962 3.63182 9.04801 3.69066C7.29633 3.81727 6.04604 4.65228 5.40855 6.30837C5.28194 6.63692 5.12683 6.72112 4.79574 6.71099C3.95694 6.68567 3.95694 6.70593 4.00125 7.55423C4.01265 7.77643 4.10761 7.88405 4.32981 7.88215C4.55202 7.88025 4.78625 7.88215 5.02618 7.88215C5.03251 8.00876 5.0401 8.09422 5.0401 8.17779C5.0401 8.24109 5.03061 8.29934 5.02364 8.37657C4.93755 8.3829 4.86601 8.3943 4.79511 8.39303C3.87654 8.37024 4.01772 8.43671 4.00632 9.25083C4.00252 9.49392 4.12787 9.59015 4.3602 9.58635C4.62735 9.58002 4.90083 9.58382 5.18824 9.58382H5.18635Z" fill="white"/>
</g>
<defs>
<clipPath id="clip0_15_735">
<rect width="16.2025" height="16.2025" fill="white" transform="translate(0.651855 0.151855)"/>
</clipPath>
</defs>
</svg>
