<svg width="15" height="15" viewBox="0 0 15 15" fill="none" xmlns="http://www.w3.org/2000/svg">
<g clip-path="url(#clip0_25_1184)">
<path d="M7.97397 14.8624C6.97893 14.8624 6.02534 14.8624 5.05103 14.8624C5.05103 11.7222 5.05103 8.5958 5.05103 5.45557C5.97697 5.45557 6.896 5.45557 7.84959 5.45557C7.84959 5.85674 7.84959 6.23717 7.84959 6.73518C8.38166 5.93283 9.0243 5.47632 9.86041 5.29648C10.6896 5.11665 11.5119 5.1789 12.2997 5.48324C13.2049 5.82908 13.7162 6.54151 13.9235 7.44761C14.0548 8.01478 14.1377 8.60271 14.1515 9.19064C14.1792 11.0236 14.1654 12.8565 14.1723 14.6826C14.1723 14.731 14.1654 14.7725 14.1515 14.8417C13.198 14.8417 12.2513 14.8417 11.2424 14.8417C11.2424 14.7379 11.2424 14.6134 11.2424 14.4958C11.2424 12.988 11.2493 11.4801 11.2355 9.96532C11.2355 9.59873 11.194 9.22522 11.1111 8.87247C10.9522 8.16695 10.5583 7.84187 9.87423 7.78653C9.07958 7.72428 8.47149 8.01479 8.22273 8.64421C8.09835 8.96239 8.00852 9.30823 8.00161 9.64715C7.97397 11.2449 7.97397 12.8496 7.96706 14.4474C7.97397 14.5719 7.97397 14.7102 7.97397 14.8624Z" fill="#004379"/>
<path d="M3.17128 5.45508C3.17128 8.58839 3.17128 11.7009 3.17128 14.8481C2.21769 14.8481 1.26411 14.8481 0.289795 14.8481C0.289795 11.7355 0.289795 8.60914 0.289795 5.45508C1.23647 5.45508 2.19696 5.45508 3.17128 5.45508Z" fill="#004379"/>
<path d="M0.0345944 2.43178C0.0276844 1.48418 0.760148 0.737164 1.69991 0.72333C2.64659 0.709497 3.42742 1.47034 3.42742 2.41103C3.42742 3.33788 2.66732 4.11948 1.74828 4.12639C0.815428 4.14715 0.0415044 3.37938 0.0345944 2.43178Z" fill="#004379"/>
</g>
<defs>
<clipPath id="clip0_25_1184">
<rect width="14.1379" height="14.1379" fill="white" transform="translate(0.0345459 0.724121)"/>
</clipPath>
</defs>
</svg>
