<svg width="14" height="14" viewBox="0 0 14 14" fill="none" xmlns="http://www.w3.org/2000/svg">
<circle cx="7" cy="7" r="6.41667" stroke="#004379" stroke-width="1.16667"/>
<path d="M7.92825 5.20963V12.1655H6.45162V5.20963H7.92825ZM7.19936 2.54541C7.42557 2.54541 7.62036 2.60615 7.78373 2.72763C7.95129 2.84911 8.03507 3.05857 8.03507 3.35599C8.03507 3.64922 7.95129 3.85867 7.78373 3.98434C7.62036 4.10582 7.42557 4.16656 7.19936 4.16656C6.96477 4.16656 6.76579 4.10582 6.60242 3.98434C6.44324 3.85867 6.36365 3.64922 6.36365 3.35599C6.36365 3.05857 6.44324 2.84911 6.60242 2.72763C6.76579 2.60615 6.96477 2.54541 7.19936 2.54541Z" fill="#004379"/>
</svg>
