<svg width="19" height="19" viewBox="0 0 19 19" fill="none" xmlns="http://www.w3.org/2000/svg">
<path d="M11.8748 9.5C11.8748 9.96973 11.7355 10.4289 11.4745 10.8195C11.2135 11.21 10.8426 11.5145 10.4086 11.6942C9.97465 11.874 9.49712 11.921 9.03642 11.8294C8.57571 11.7377 8.15253 11.5115 7.82038 11.1794C7.48823 10.8472 7.26203 10.424 7.17039 9.96334C7.07875 9.50263 7.12578 9.0251 7.30554 8.59113C7.4853 8.15715 7.78971 7.78623 8.18028 7.52526C8.57084 7.26429 9.03003 7.125 9.49976 7.125C10.129 7.12696 10.732 7.37781 11.177 7.82278C11.6219 8.26776 11.8728 8.87071 11.8748 9.5ZM16.9216 6.23438V12.7656C16.9216 13.8679 16.4837 14.9251 15.7043 15.7045C14.9248 16.484 13.8677 16.9219 12.7654 16.9219H6.23413C5.13182 16.9219 4.07467 16.484 3.29522 15.7045C2.51577 14.9251 2.07788 13.8679 2.07788 12.7656V6.23438C2.07788 5.13207 2.51577 4.07491 3.29522 3.29546C4.07467 2.51601 5.13182 2.07813 6.23413 2.07812H12.7654C13.8677 2.07813 14.9248 2.51601 15.7043 3.29546C16.4837 4.07491 16.9216 5.13207 16.9216 6.23438ZM13.0623 9.5C13.0623 8.7954 12.8533 8.10663 12.4619 7.52078C12.0704 6.93493 11.514 6.47832 10.8631 6.20868C10.2121 5.93904 9.4958 5.86849 8.80475 6.00595C8.11369 6.14341 7.47891 6.48271 6.98069 6.98093C6.48246 7.47916 6.14317 8.11393 6.00571 8.80499C5.86825 9.49605 5.9388 10.2123 6.20844 10.8633C6.47807 11.5143 6.93469 12.0707 7.52054 12.4621C8.10639 12.8536 8.79516 13.0625 9.49976 13.0625C10.4446 13.0625 11.3507 12.6872 12.0188 12.0191C12.6869 11.351 13.0623 10.4448 13.0623 9.5ZM14.2498 5.64062C14.2498 5.46448 14.1975 5.29228 14.0997 5.14582C14.0018 4.99936 13.8627 4.8852 13.7 4.81779C13.5372 4.75039 13.3581 4.73275 13.1854 4.76711C13.0126 4.80148 12.8539 4.8863 12.7294 5.01086C12.6048 5.13541 12.52 5.29411 12.4856 5.46687C12.4513 5.63964 12.4689 5.81871 12.5363 5.98145C12.6037 6.14419 12.7179 6.28329 12.8643 6.38115C13.0108 6.47902 13.183 6.53125 13.3591 6.53125C13.5953 6.53125 13.8219 6.43742 13.9889 6.27039C14.1559 6.10337 14.2498 5.87683 14.2498 5.64062Z" fill="#004379"/>
</svg>
