<svg width="16" height="22" viewBox="0 0 16 22" fill="none" xmlns="http://www.w3.org/2000/svg">
<g clip-path="url(#clip0_15_731)">
<path d="M7.73991 0.619431C12.1817 0.619431 15.5736 4.50854 15.0309 8.86201C14.5833 12.4527 12.9889 15.5265 10.8948 18.3852C10.0656 19.519 9.10365 20.562 8.19205 21.6322C7.93395 21.937 7.62367 21.9796 7.32987 21.6694C4.45503 18.6283 2.09183 15.2707 0.913888 11.2156C0.385782 9.40166 0.164285 7.54871 0.761951 5.6876C1.22539 4.21452 2.15315 2.92744 3.40904 2.01528C4.66493 1.10311 6.18281 0.613893 7.73991 0.619431ZM5.2925 9.84245C5.30303 10.0385 5.30303 10.235 5.2925 10.4311C5.23941 10.9118 5.44718 11.1811 5.90481 11.3471C6.88964 11.7099 7.87903 11.8133 8.9023 11.5521C10.191 11.2229 10.2596 11.2111 10.1745 9.91955C10.1178 9.07606 10.3228 8.55908 11.1932 8.34685C11.3762 8.3024 11.6197 8.03122 11.6206 7.86343C11.6215 7.69564 11.39 7.44713 11.2023 7.36097C10.1809 6.89841 9.14759 6.46095 8.10236 6.04858C7.86724 5.96765 7.6111 5.9699 7.37747 6.05493C6.36244 6.45491 5.36389 6.90114 4.3571 7.3247C4.09168 7.43535 3.79239 7.56413 3.86836 7.87613C3.90687 7.99037 3.97042 8.09474 4.05445 8.18177C4.13847 8.2688 4.24089 8.33633 4.35435 8.37951C5.11951 8.60081 5.54786 8.99443 5.2925 9.84335V9.84245Z" fill="white"/>
<path d="M5.57263 7.86072C6.28562 7.5587 6.89702 7.29023 7.51756 7.04444C7.65496 6.99029 7.80713 6.98547 7.94773 7.03084C8.58201 7.28116 9.2053 7.5587 9.91554 7.86163C9.17784 8.17363 8.51245 8.45842 7.84247 8.73595C7.77343 8.75895 7.69832 8.75638 7.63105 8.7287C6.9739 8.45661 6.3204 8.17725 5.57263 7.86072Z" fill="white"/>
<path d="M6.28107 9.14502C7.27688 9.89237 8.22051 9.8706 9.20533 9.15681C9.20533 9.6103 9.22363 9.93862 9.19435 10.2624C9.1792 10.321 9.15059 10.3753 9.11073 10.4211C9.07088 10.4669 9.02086 10.5029 8.96462 10.5263C8.18588 10.7993 7.33655 10.8012 6.55657 10.5318C6.49044 10.5007 6.43238 10.4551 6.38684 10.3983C6.34131 10.3416 6.30951 10.2752 6.29389 10.2044C6.25545 9.9087 6.28107 9.60486 6.28107 9.14502Z" fill="white"/>
</g>
<defs>
<clipPath id="clip0_15_731">
<rect width="14.6835" height="21.2658" fill="white" transform="translate(0.405029 0.620361)"/>
</clipPath>
</defs>
</svg>
