<svg width="16" height="14" viewBox="0 0 16 14" fill="none" xmlns="http://www.w3.org/2000/svg">
<g clip-path="url(#clip0_25_1190)">
<path d="M0.93103 12.2269C2.30225 12.2703 3.5424 11.9172 4.69685 10.9884C3.95074 10.9123 3.33067 10.6516 2.87192 10.0866C2.62489 9.78245 2.43333 9.4185 2.22159 9.08171C2.24176 9.05455 2.26192 9.02739 2.28209 9.00023C2.62489 9.00023 2.97274 9.00023 3.31555 9.00023C2.09556 8.49505 1.40491 7.5879 1.31417 6.1647C1.68218 6.27334 2.03002 6.37655 2.37787 6.48519C2.393 6.45803 2.40812 6.4363 2.42324 6.40914C1.90399 5.95285 1.54102 5.39878 1.40491 4.69261C1.27384 3.98644 1.3545 3.3183 1.70234 2.66646C3.1391 4.47533 4.92875 5.4694 7.06624 5.63236C7.11161 5.12718 7.09649 4.63829 7.2074 4.19286C7.70648 2.20473 10.0204 1.4714 11.4521 2.83485C11.6084 2.98151 11.7395 3.05213 11.9411 2.96522C12.3848 2.78053 12.8334 2.61757 13.272 2.44917C13.267 2.7588 13.0855 3.04127 12.3444 3.92126C12.7729 3.79632 13.2015 3.66595 13.6552 3.53558C13.393 3.98101 13.0805 4.36126 12.7074 4.67088C12.4755 4.86101 12.3848 5.05656 12.3848 5.38248C12.3797 8.94591 10.1666 12.1563 7.01583 13.1123C4.96404 13.737 2.98282 13.4925 1.11252 12.3572C1.05202 12.3138 0.991525 12.2703 0.93103 12.2269Z" fill="#004379"/>
</g>
<defs>
<clipPath id="clip0_25_1190">
<rect width="14.1379" height="12.7241" fill="white" transform="translate(0.931152 0.724121)"/>
</clipPath>
</defs>
</svg>
