<svg width="97" height="97" viewBox="0 0 97 97" fill="none" xmlns="http://www.w3.org/2000/svg">
<rect x="2" y="2" width="93" height="93" fill="#004379" stroke="#EDAB00" stroke-width="4"/>
<g clip-path="url(#clip0_4_197)">
<path d="M37.9741 54.5027C37.1837 53.8912 36.5802 53.4864 36.0587 52.9939C35.7918 52.7414 35.492 52.2969 35.5413 51.9943C35.5906 51.6917 36.0217 51.3682 36.3625 51.243C37.929 50.6983 37.9372 50.7234 37.9372 49.0434C37.9372 46.51 37.9372 46.51 39.9657 44.1477L38.9391 42.7578H35.5372C34.0076 42.7578 33.9953 42.7432 33.8475 41.0174C33.3885 41.4959 32.9017 41.9461 32.3898 42.3655C32.0921 42.5742 31.6363 42.7829 31.316 42.7015C31.0594 42.641 30.7658 42.1798 30.7165 41.8667C30.4517 40.1555 30.2689 38.4297 30.0349 36.7101C29.9035 35.7502 30.3161 35.2827 31.2318 35.4037C32.2481 35.5415 32.9031 35.1095 33.4636 34.306C33.8981 33.6817 34.3889 33.0997 34.9295 32.5677C35.219 32.286 35.763 31.9208 36.0053 32.0272C36.3481 32.1795 36.5739 32.7096 36.7464 33.1228C36.8716 33.4233 36.8327 33.7948 36.886 34.329C40.4687 33.8156 43.9794 33.8782 47.0837 35.7042C47.326 35.5456 47.4081 35.5227 47.4348 35.4705C48.5517 33.2856 48.3649 33.6925 50.5247 34.0661C52.3048 34.3728 54.0703 34.7756 55.8483 35.1095C56.61 35.2514 57.0802 35.5644 57.1213 36.4472C57.1565 36.5947 57.227 36.7312 57.3266 36.8444C57.4261 36.9576 57.5516 37.0441 57.692 37.0962C59.1517 37.4342 60.63 37.6993 62.0939 37.9873C62.7098 36.466 62.8207 36.4221 64.3276 37.0544C64.769 37.2402 65.2063 37.4384 65.6559 37.597C66.4771 37.8829 66.9535 38.365 66.5942 39.4376C68.015 39.4376 69.3351 39.4689 70.6552 39.4272C71.6222 39.3959 71.9836 39.8049 72.0103 40.7837C72.0369 41.8459 71.6695 42.6013 71.0433 43.4757C69.563 45.5459 67.3949 45.8881 65.233 46.2721C64.0873 46.4808 63.3668 46.9587 62.8186 48.0188C61.9009 49.7968 60.8168 51.4851 59.6794 53.4238C60.2461 53.9309 60.8558 54.4234 61.404 54.9826C62.1513 55.7423 62.102 56.4184 61.1391 56.7356C59.6855 57.2156 59.1395 58.2235 58.9937 59.6322C58.9547 60.0078 58.8233 60.373 58.7637 60.7486C58.6159 61.7002 58.1478 62.2094 57.152 61.959C56.4848 61.7941 56.0414 62.0759 55.6923 62.6185C54.713 64.146 53.3949 64.7951 51.5492 64.5864C50.0627 64.4194 48.5414 64.5154 47.0324 64.5864C46.5772 64.6223 46.1453 64.8059 45.8005 65.1102C44.8561 65.9637 43.9939 66.909 43.0823 67.8022C42.3411 68.5264 41.8504 68.4679 41.2673 67.5935C40.791 66.8736 40.3024 66.1557 39.8918 65.3982C39.2143 64.146 38.4033 63.1402 36.8922 62.8731C36.0258 62.7207 35.9827 62.0383 36.3543 61.3413C36.7649 60.5796 37.2371 59.8534 37.6046 59.0729C37.7401 58.787 37.81 58.2715 37.6457 58.0691C36.6377 56.7878 36.2906 55.6045 37.9741 54.5027Z" fill="white"/>
<path d="M65.7483 64.8931C65.4641 64.8566 65.1871 64.7756 64.9271 64.6532C63.9457 64.0981 62.9829 63.5033 62.0343 62.8919C61.3774 62.4745 61.3013 61.9173 61.8577 61.3434C62.9602 60.2061 64.0668 59.075 65.1899 57.9606C65.7175 57.4368 66.2595 57.5078 66.6476 58.1276C67.3025 59.171 67.9944 60.2144 68.5159 61.3434C69.292 63.015 67.9431 64.8618 65.7483 64.8931Z" fill="white"/>
<path d="M70.6265 55.9197C70.0619 56.3642 69.6 56.888 69.4583 56.8107C68.9881 56.5415 68.6371 56.0636 68.2388 55.6651C68.5262 55.3896 68.8917 54.8303 69.0888 54.8971C69.5671 55.0348 69.9654 55.4543 70.6265 55.9197Z" fill="white"/>
<path d="M61.4801 69.0021C60.9996 68.3072 60.5849 67.9002 60.4535 67.4161C60.3981 67.2178 60.9422 66.8443 61.2132 66.55C61.5869 66.9319 62.0652 67.2617 62.287 67.7208C62.3691 67.9044 61.8907 68.3698 61.4801 69.0021Z" fill="white"/>
</g>
<defs>
<clipPath id="clip0_4_197">
<rect width="42" height="37" fill="white" transform="translate(30 32)"/>
</clipPath>
</defs>
</svg>
