<svg width="97" height="97" viewBox="0 0 97 97" fill="none" xmlns="http://www.w3.org/2000/svg">
<rect x="2" y="2" width="93" height="93" fill="#004379" stroke="#EDAB00" stroke-width="4"/>
<g clip-path="url(#clip0_4_304)">
<path d="M26.2809 55.3492C28.2925 54.3347 29.9979 52.7719 32.3827 52.7852C32.3043 51.31 32.222 51.2206 30.9339 51.192C27.4638 51.114 25.012 48.6299 25.0005 45.1846C25.0005 44.3927 25.0005 43.6009 25.0005 42.6758C27.2973 42.7519 29.5941 42.2475 31.7148 43.5076C32.2717 42.0039 32.2717 42.0039 31.0028 41.2082C28.3002 39.5141 27.4389 36.2915 28.9529 33.4915C29.3874 32.6863 29.8678 31.9059 30.3845 31.0169C31.7243 31.8335 33.0967 32.5226 34.3025 33.421C36.316 34.9229 36.9648 37.662 35.9313 40.108C34.9972 42.3237 34.358 44.5793 34.3809 47.0024C34.4518 54.5479 40.366 60.9874 47.9492 61.7278C50.1094 61.9536 52.2932 61.7132 54.3516 61.0232C56.4099 60.3331 58.2943 59.2095 59.8762 57.7292C61.4581 56.2488 62.7003 54.4465 63.518 52.4452C64.3357 50.4439 64.7096 48.2907 64.6143 46.1325C64.5339 44.0159 63.8889 42.04 63.0716 40.0966C62.5926 39.0163 62.4642 37.8143 62.7044 36.6581C62.9445 35.5018 63.5412 34.4488 64.4114 33.6457C64.4761 33.5758 64.5472 33.512 64.6239 33.4553C65.9388 32.6501 67.2556 31.8469 68.6432 31.0017C69.5409 32.7643 70.8175 34.2053 70.7831 36.2249C70.7467 38.3587 69.8663 40.0014 68.0767 41.1739C66.8384 41.981 66.8345 41.9772 67.2326 43.5381C69.338 42.2761 71.652 42.7519 73.9431 42.6777C73.9431 43.953 74.0981 45.1713 73.9124 46.3362C73.4588 49.18 71.1735 51.0664 68.2585 51.1958C66.8479 51.2586 66.8479 51.2586 66.5513 52.7776C68.9667 52.7776 70.7103 54.3118 72.6856 55.3302C71.2865 59.2228 67.7666 62.6624 62.3271 59.2685L61.2323 60.481C63.4161 61.5984 64.0612 63.8788 65.2995 65.7118C62.2371 68.2872 57.4522 69.732 54.3725 64.0406C51.1657 64.9234 47.7768 64.9142 44.5748 64.0139C43.5815 66.1077 42.056 67.6305 39.6176 67.9617C37.2921 68.2758 35.5695 66.9338 33.6441 65.8241C34.9207 63.932 35.5581 61.6631 37.7534 60.4944L36.4978 59.3732C32.1665 62.1713 28.3232 60.3706 26.2809 55.3492ZM61.5634 46.7321C61.5604 48.3043 61.2456 49.8604 60.6371 51.3114C60.0287 52.7624 59.1384 54.0799 58.0173 55.1883C56.8962 56.2967 55.5663 57.1743 54.1037 57.7709C52.6411 58.3675 51.0746 58.6714 49.4938 58.6651C47.9048 58.6684 46.331 58.3584 44.8632 57.7529C43.3955 57.1475 42.0631 56.2586 40.943 55.1378C39.8229 54.0169 38.9374 52.6863 38.3376 51.2229C37.7379 49.7595 37.4359 48.1924 37.4491 46.6122C37.4606 40.0661 42.9594 34.6526 49.5665 34.685C56.1736 34.7173 61.5711 40.1365 61.5634 46.7321ZM53.4672 41.804C53.4672 40.7888 53.1578 40.0084 52.5389 39.4627C51.9469 38.9335 51.1475 38.6683 50.1407 38.6671H48.889C47.8682 38.6671 47.0618 38.9323 46.4697 39.4627C45.8521 40.0071 45.5427 40.7875 45.5414 41.804V43.1136H48.0296V41.5451C48.0332 41.3543 48.0701 41.1656 48.1387 40.9874C48.2473 40.5998 48.5025 40.269 48.8507 40.0642C49.1767 39.8714 49.551 39.7744 49.9302 39.7844H51.7446C51.5241 40.0937 51.3362 40.4247 51.1838 40.7723C51.046 41.0703 50.9804 41.3963 50.9924 41.7241V45.0304C50.9951 45.1599 50.9694 45.2884 50.9172 45.407C50.8649 45.5257 50.7875 45.6316 50.69 45.7176C50.5378 45.8446 50.3614 45.9398 50.1713 45.9974C49.9684 46.0602 49.7579 46.096 49.5455 46.104H48.3148V47.6077H49.6105C49.7502 47.609 49.8888 47.6308 50.0221 47.6725C50.3091 47.7272 50.5682 47.8792 50.7551 48.1026C50.9142 48.3043 50.9981 48.5545 50.9924 48.8107V53.2154C50.9914 53.368 50.9695 53.5198 50.9274 53.6665C50.845 53.9857 50.6544 54.2668 50.3876 54.4622C50.1412 54.6341 49.8464 54.7241 49.5455 54.7192C49.2402 54.7307 48.9387 54.6482 48.6823 54.4831C48.4839 54.3437 48.3213 54.1598 48.2076 53.9464C48.1028 53.7161 48.0437 53.4679 48.0334 53.2154V50.3944H45.5452V52.7148C45.5452 53.73 45.8547 54.5098 46.4735 55.0542C47.063 55.5859 47.8695 55.8511 48.8928 55.8498H50.1446C51.1539 55.8498 51.9533 55.5846 52.5428 55.0542C53.1604 54.5123 53.4698 53.7325 53.4711 52.7148V49.1705C53.4884 48.7628 53.3831 48.3592 53.1686 48.0113C52.9365 47.672 52.6011 47.4158 52.2117 47.2803L51.2547 46.873L52.1829 46.4637C52.5772 46.3081 52.9157 46.0391 53.1553 45.6909C53.3657 45.3253 53.4703 44.909 53.4577 44.4879L53.4672 41.804Z" fill="white"/>
</g>
<defs>
<clipPath id="clip0_4_304">
<rect width="49" height="37" fill="white" transform="matrix(-1 0 0 1 74 31)"/>
</clipPath>
</defs>
</svg>
