<svg width="97" height="97" viewBox="0 0 97 97" fill="none" xmlns="http://www.w3.org/2000/svg">
<rect x="2" y="2" width="93" height="93" fill="#004379" stroke="#EDAB00" stroke-width="4"/>
<g clip-path="url(#clip0_4_387)">
<path d="M38.3873 64.372V44.8601H33.1163C32.2004 38.0276 36.8464 33.3631 43.3103 34.0694C43.7129 36.199 44.7706 37.9332 46.6323 39.1335C47.8414 39.9208 49.2629 40.3156 50.7036 40.264C53.7226 40.171 56.8618 38.2042 57.6957 34.1145C63.3748 33.2755 68.856 37.3816 67.8897 44.8614H62.6187V64.3762L38.3873 64.372ZM58.3781 57.1632V42.5443H52.1449C51.6631 42.5443 51.7709 42.9097 51.7695 43.1834C51.7627 45.0763 51.7695 46.9679 51.7695 48.8594V50.5018H49.2391V49.6984C49.2391 47.5564 49.2227 45.413 49.2514 43.2656C49.2582 42.7181 49.1231 42.5114 48.5376 42.5237C46.7879 42.5607 45.0368 42.5361 43.2871 42.5361H42.6333V57.1577L58.3781 57.1632Z" fill="white"/>
<path d="M62.5748 66.5227V69H38.4362V66.5227H62.5748Z" fill="white"/>
<path d="M45.4624 34.0505H55.5117C55.3411 36.209 53.1205 38.0936 50.6338 38.2141C48.229 38.3304 45.8773 36.4731 45.4624 34.0505Z" fill="white"/>
<path d="M33.0791 46.9382H36.281V49.447H33.0791V46.9382Z" fill="white"/>
<path d="M64.693 46.9368H67.925V49.436H64.693V46.9368Z" fill="white"/>
<path d="M47.1902 52.5757H53.8124V51.8106C53.8124 49.6207 53.8261 47.4308 53.8015 45.2492C53.8015 44.7455 53.938 44.5539 54.4526 44.5881C55.0599 44.6291 55.6714 44.5977 56.3265 44.5977V55.1064H44.6803V44.6004C45.3832 44.6004 46.1011 44.6004 46.8204 44.6004C47.3062 44.6004 47.1793 44.985 47.1807 45.2519C47.1807 47.4418 47.1807 49.6317 47.1807 51.8134L47.1902 52.5757Z" fill="white"/>
</g>
<defs>
<clipPath id="clip0_4_387">
<rect width="35" height="35" fill="white" transform="translate(33 34)"/>
</clipPath>
</defs>
</svg>
