<svg width="97" height="97" viewBox="0 0 97 97" fill="none" xmlns="http://www.w3.org/2000/svg">
<rect x="2" y="2" width="93" height="93" fill="#004379" stroke="#EDAB00" stroke-width="4"/>
<g clip-path="url(#clip0_4_275)">
<path d="M67.2133 38.601C64.7554 39.6571 62.4348 40.6173 60.1491 41.656C59.2619 42.0575 58.4983 42.0785 57.5972 41.6717C54.7253 40.3729 51.8203 39.1474 48.9205 37.9131C48.2577 37.6321 47.7342 37.2707 47.7324 36.4834C47.7307 35.696 48.2543 35.3277 48.9118 35.0466C51.9438 33.7548 54.9584 32.4158 58.006 31.1623C58.5313 30.9576 59.1119 30.9465 59.6446 31.1309C62.7479 32.4035 65.813 33.7652 68.9006 35.0798C69.6608 35.4045 70.0052 35.9195 70 36.7574C69.9791 39.8404 70 42.9252 69.9896 46.0099C69.9896 47.0312 69.4433 47.6544 68.5979 47.6492C67.7525 47.6439 67.2203 47.0242 67.2185 45.9942C67.2081 43.5798 67.2133 41.1689 67.2133 38.601Z" fill="#FCFCFC"/>
<path d="M47.0384 43.4646C48.047 43.4664 49.0454 43.6683 49.976 44.0586C50.9067 44.449 51.7513 45.02 52.4612 45.7391C53.1712 46.4581 53.7326 47.3108 54.1131 48.2483C54.4936 49.1858 54.6857 50.1895 54.6783 51.2018C54.66 53.2302 53.8439 55.1693 52.4078 56.5968C50.9717 58.0243 49.0318 58.8247 47.0105 58.8237C46.0019 58.8219 45.0035 58.62 44.0729 58.2297C43.1422 57.8393 42.2976 57.2682 41.5876 56.5492C40.8777 55.8302 40.3163 54.9774 39.9358 54.04C39.5553 53.1025 39.3632 52.0988 39.3706 51.0865C39.3885 49.0579 40.2044 47.1186 41.6406 45.691C43.0768 44.2634 45.0169 43.4631 47.0384 43.4646V43.4646ZM45.5928 53.0121C44.8118 52.1968 44.1456 51.4252 43.3906 50.7566C43.1853 50.582 42.707 50.7042 42.3469 50.6903C42.3713 51.0237 42.2668 51.4741 42.4443 51.6714C43.274 52.5984 44.1838 53.4555 45.0623 54.3424C45.4397 54.7229 45.8103 54.7334 46.1912 54.3424C47.9916 52.5338 49.8094 50.7409 51.5733 48.8974C51.7611 48.7018 51.6446 48.2095 51.6689 47.8499C51.3149 47.8562 50.9624 47.8978 50.6165 47.9739C50.42 48.035 50.2808 48.2829 50.1173 48.447L45.5928 53.0121Z" fill="#FCFCFC"/>
<path d="M45.6398 60.3476C45.1179 62.4775 44.5456 64.7504 43.9803 67.0251C43.8341 67.6152 43.7837 68.2472 43.5106 68.7709C43.2688 69.237 42.8148 69.8183 42.3869 69.8986C41.959 69.9789 41.2771 69.6141 40.9587 69.2335C40.2386 68.3694 39.6558 67.3865 39.0453 66.4298C38.8052 66.0475 38.5739 65.9672 38.1268 66.0667C36.3786 66.456 34.6147 66.7807 32.8595 67.1421C32.2003 67.2765 31.6419 67.1421 31.2557 66.5677C31.0681 66.3203 30.9755 66.0133 30.995 65.703C31.0145 65.3926 31.1447 65.0997 31.3618 64.8779C33.9711 61.8752 36.5804 58.883 39.127 55.9658C40.0925 56.8788 40.9344 57.8949 41.9833 58.6036C43.0322 59.3124 44.3073 59.7314 45.6398 60.3476Z" fill="#FCFCFC"/>
<path d="M48.4021 60.1225C51.1262 59.5987 53.2223 58.2318 54.7375 55.8838C54.8443 55.9665 54.9459 56.0557 55.0419 56.1509C57.5619 59.0302 60.0818 61.9101 62.6018 64.7906C63.0697 65.3265 63.2072 65.9183 62.8105 66.5451C62.4139 67.1718 61.826 67.294 61.1389 67.1526C59.3872 66.793 57.6268 66.4665 55.882 66.0737C55.4263 65.9707 55.2071 66.0737 54.9705 66.4456C54.386 67.3778 53.7529 68.2786 53.1475 69.1986C52.784 69.7555 52.3073 70.1046 51.6272 69.972C50.947 69.8393 50.6322 69.3819 50.4704 68.7203C49.8111 66.0231 49.117 63.3311 48.4421 60.6375C48.4156 60.4671 48.4022 60.2949 48.4021 60.1225Z" fill="#FCFCFC"/>
<path d="M65.8112 40.729C65.8112 41.7503 65.893 42.6494 65.7764 43.5362C65.7335 43.7699 65.6434 43.9923 65.5118 44.1898C65.3802 44.3873 65.2098 44.5558 65.011 44.6849C63.2106 45.666 61.3702 46.5843 59.5124 47.4537C59.0935 47.624 58.625 47.624 58.2061 47.4537C56.3465 46.5808 54.5061 45.6678 52.7039 44.6849C52.5056 44.5562 52.3354 44.3882 52.2038 44.1914C52.0722 43.9945 51.982 43.7727 51.9386 43.5397C51.822 42.6581 51.9038 41.7503 51.9038 40.7273C53.4833 41.4012 55.0158 41.9354 56.4265 42.6895C58.0878 43.5746 59.6098 43.5746 61.2728 42.6895C62.701 41.9441 64.23 41.4046 65.8112 40.729Z" fill="#FCFCFC"/>
</g>
<defs>
<clipPath id="clip0_4_275">
<rect width="39" height="39" fill="white" transform="translate(31 31)"/>
</clipPath>
</defs>
</svg>
