<svg width="97" height="97" viewBox="0 0 97 97" fill="none" xmlns="http://www.w3.org/2000/svg">
<rect x="2" y="2" width="93" height="93" fill="#004379" stroke="#EDAB00" stroke-width="4"/>
<g clip-path="url(#clip0_4_175)">
<path d="M46.5941 58.3266C44.5723 58.3266 42.6927 58.3266 40.8361 58.3266C39.9044 58.3266 39.7162 57.7268 39.7185 56.9479C39.7185 53.4253 39.7185 49.9004 39.7185 46.3778C39.7185 41.7821 39.7185 37.1864 39.7185 32.5908C39.7185 31.0857 39.8631 30.9455 41.3663 30.9363C42.3898 30.9363 43.4156 30.9363 44.5998 30.9363C44.5998 29.9896 44.5998 29.1624 44.5998 28.3329C44.5998 27.4505 44.9762 26.9978 45.9148 27.0047C48.9747 27.0277 52.0346 27.0277 55.0945 27.0047C56.04 27.0047 56.4026 27.4643 56.398 28.3444C56.398 29.144 56.398 29.9528 56.398 30.9363C57.612 30.9363 58.7434 30.9685 59.8725 30.9363C60.9098 30.8996 61.2931 31.3637 61.2908 32.3817C61.2724 40.539 61.2724 48.6956 61.2908 56.8513C61.2908 57.9198 60.9075 58.3863 59.806 58.3564C58.055 58.3036 56.3016 58.3426 54.4083 58.3426V51.1665C54.4083 48.5378 54.4083 48.5378 51.7554 48.5378C50.5322 48.5378 49.3067 48.5584 48.0835 48.5378C47.0393 48.5148 46.5574 48.9261 46.578 50.036C46.6262 52.7428 46.5941 55.4566 46.5941 58.3266ZM45.3296 41.9223C46.2682 41.6925 47.037 41.642 47.0439 40.6952C47.0439 39.8336 46.3853 39.7118 45.6669 39.698C44.9165 39.698 44.1363 39.8129 44.2028 40.6883C44.2304 41.1318 44.9257 41.5202 45.3296 41.9223ZM55.6866 41.9223C56.0813 41.5133 56.7767 41.1249 56.8111 40.6883C56.8754 39.8152 56.0973 39.6865 55.3446 39.698C54.6332 39.7118 53.9677 39.8336 53.9677 40.6929C53.9722 41.6488 54.7388 41.6925 55.6774 41.9223H55.6866ZM45.8827 45.8516C46.2774 45.4472 46.9521 45.0749 47.0049 44.6291C47.1151 43.71 46.3164 43.6273 45.5775 43.6135C44.8385 43.5997 44.1798 43.795 44.1752 44.5993C44.1615 45.4931 44.8936 45.6563 45.8735 45.8585L45.8827 45.8516ZM55.6705 45.8516C56.0744 45.4449 56.779 45.0611 56.818 44.6245C56.8868 43.7629 56.1295 43.5974 55.3607 43.6158C54.6516 43.6319 53.9837 43.7491 53.9837 44.6085C53.9631 45.5575 54.7204 45.6195 55.6567 45.8562L55.6705 45.8516ZM45.9561 35.5688C44.9532 35.7273 44.2234 35.8445 44.1752 36.7407C44.1316 37.5771 44.8064 37.7724 45.5224 37.7678C46.2384 37.7632 47.0692 37.7402 47.0072 36.8096C46.9682 36.3799 46.3164 35.987 45.9469 35.5734L45.9561 35.5688ZM55.6934 35.5688C54.7273 35.7664 53.9883 35.833 53.9746 36.7751C53.9608 37.6506 54.663 37.754 55.3515 37.7678C56.0859 37.7839 56.8891 37.6713 56.8134 36.7774C56.7652 36.35 56.0767 35.9732 55.6843 35.5734L55.6934 35.5688ZM50.5093 42.1521C51.1266 41.5408 51.7898 41.1916 51.8609 40.7458C52.0101 39.8267 51.2413 39.7049 50.484 39.7049C49.7267 39.7049 48.9694 39.8427 49.13 40.7573C49.2172 41.2054 49.885 41.5477 50.5093 42.1521ZM50.7387 45.8608C51.1358 45.4656 51.7967 45.114 51.8701 44.6659C52.0216 43.7468 51.2482 43.6204 50.4932 43.6204C49.8047 43.6204 49.1346 43.7054 49.0978 44.574C49.0565 45.5437 49.7886 45.6103 50.7296 45.8631L50.7387 45.8608ZM50.8007 37.9999C51.1771 37.5978 51.8196 37.2255 51.8724 36.7843C51.9826 35.8652 51.184 35.794 50.4611 35.7917C49.7382 35.7894 49.1139 35.9065 49.1047 36.7751C49.0818 37.7678 49.8575 37.7379 50.7915 38.0022L50.8007 37.9999Z" fill="white"/>
<path d="M68.063 62.3108H51.6589C51.177 63.8136 51.2848 64.0801 52.6251 64.7304C53.632 65.2198 54.4421 66.0385 54.9216 67.0512C55.401 68.0639 55.5211 69.2101 55.2619 70.3004C55.0051 71.3496 54.4062 72.2831 53.5599 72.9532C52.7136 73.6232 51.6683 73.9916 50.5895 73.9999C49.4719 74.0288 48.3785 73.6722 47.4923 72.9899C46.6061 72.3075 45.981 71.341 45.7219 70.2521C45.4811 69.1779 45.6051 68.0539 46.0745 67.0583C46.5438 66.0626 47.3316 65.2523 48.3129 64.7557C49.6463 64.087 49.6463 64.087 49.4604 62.3384H33.0241C32.611 63.9468 32.6524 64.0525 34.0546 64.7465C35.0383 65.2367 35.8308 66.0413 36.3067 67.033C36.7826 68.0247 36.9147 69.1469 36.6823 70.2222C36.4348 71.2941 35.8325 72.2506 34.9734 72.9365C34.1143 73.6223 33.0488 73.9971 31.9501 73.9999C30.8513 74.023 29.7773 73.6718 28.9038 73.0039C28.0303 72.3359 27.4092 71.3908 27.1423 70.3233C26.603 68.06 27.6357 65.6794 29.7607 64.7764C30.7544 64.3559 30.9977 63.832 30.9702 62.8347C30.9013 60.3369 30.9495 60.3346 33.4556 60.3346H49.5499C49.5499 59.4775 49.5499 58.7262 49.5499 57.9771C49.5499 57.2877 49.4558 56.472 50.4678 56.4536C51.5625 56.4375 51.4432 57.3038 51.4478 58.0299C51.4524 58.756 51.4478 59.4638 51.4478 60.3277H52.7926C57.9944 60.3277 63.1963 60.3277 68.3981 60.3277C69.9265 60.3277 70.0389 60.4495 70.0527 61.9569C70.0596 62.0717 70.0596 62.1868 70.0527 62.3016C69.9173 63.508 70.1124 64.3283 71.4801 64.9142C73.5456 65.7943 74.4314 68.3127 73.8072 70.4704C73.5149 71.5109 72.8821 72.423 72.0103 73.0605C71.1385 73.698 70.0782 74.0239 68.9993 73.9861C67.9222 73.9736 66.8798 73.6033 66.0358 72.9333C65.1917 72.2632 64.5938 71.3315 64.3361 70.2843C63.8082 68.1174 64.8364 65.6358 66.9018 64.8246C68.3017 64.28 68.2443 63.462 68.063 62.3108Z" fill="white"/>
</g>
<defs>
<clipPath id="clip0_4_175">
<rect width="47" height="47" fill="white" transform="translate(27 27)"/>
</clipPath>
</defs>
</svg>
