<svg width="97" height="97" viewBox="0 0 97 97" fill="none" xmlns="http://www.w3.org/2000/svg">
<rect x="2" y="2" width="93" height="93" fill="#004379" stroke="#EDAB00" stroke-width="4"/>
<g clip-path="url(#clip0_11_274)">
<path d="M50.1736 46.5683C51.0362 46.5683 51.7864 46.5527 52.5349 46.5683C53.3929 46.5902 53.9179 47.0371 53.9414 47.7169C53.9601 48.428 53.421 48.8984 52.5146 48.9031C50.1736 48.9145 47.8321 48.9145 45.4901 48.9031C44.6165 48.9031 44.0992 48.4702 44.0711 47.7873C44.043 47.1043 44.5899 46.5902 45.4776 46.5683C46.2261 46.5496 46.9747 46.5683 47.8217 46.5683C47.8217 45.6869 47.8389 44.8884 47.8029 44.0945C47.7768 44.0044 47.7295 43.9218 47.6651 43.8536C47.6007 43.7854 47.521 43.7335 47.4326 43.7022C45.637 43.1803 44.3258 42.0926 43.4335 40.4517C43.3132 40.2314 42.9772 40.0564 42.7115 40.0001C39.8439 39.3844 37.3888 36.8606 37.781 32.6443C37.8482 31.9113 38.3264 31.5222 39.1156 31.5082C40.2861 31.4894 41.4597 31.4925 42.6271 31.4832C42.649 31.4832 42.6709 31.455 42.7928 31.3706C42.7928 31.0581 42.774 30.6815 42.7928 30.3033C42.8428 29.4453 43.2772 29.0093 44.1227 29.0078C47.3763 28.9984 50.6289 28.9984 53.8804 29.0078C54.6962 29.0078 55.1306 29.425 55.1994 30.2314C55.2306 30.619 55.1994 31.0128 55.1994 31.505H58.2608C59.9548 31.505 60.2283 31.7832 60.2252 33.5085C60.2252 36.4558 58.7953 38.8093 56.2292 39.6719C55.1572 40.0329 54.4508 40.5486 53.8507 41.4878C53.135 42.6099 51.9895 43.2928 50.7003 43.646C50.283 43.7616 50.1502 43.9351 50.1595 44.3352C50.1861 45.0337 50.1736 45.7338 50.1736 46.5683ZM40.1845 33.8851C40.1299 35.5947 41.1847 37.0856 42.7224 37.4794V33.8851H40.1845ZM55.2385 37.5169C56.8872 37.0043 57.9233 35.5072 57.7967 33.9007H55.2385V37.5169Z" fill="white"/>
<path d="M43.0944 68.9405V66.6308C43.0944 62.1832 43.0944 57.7361 43.0944 53.2896C43.0944 51.9738 43.4475 51.6144 44.7446 51.6128C47.6315 51.6128 50.5184 51.6128 53.4053 51.6128C54.4758 51.6128 54.8978 52.0113 54.8993 53.0505C54.9087 58.2263 54.9087 63.4021 54.8993 68.5779C54.8993 68.6795 54.879 68.7795 54.8618 68.9389L43.0944 68.9405Z" fill="white"/>
<path d="M40.7174 55.4322V68.9421C40.5624 68.9696 40.4058 68.9879 40.2486 68.9968C36.97 68.9968 33.6913 68.9968 30.4127 68.9968C29.4188 68.9968 29.0062 68.5717 29.0062 67.5622C29.0062 63.971 29.0062 60.3803 29.0062 56.7902C29.0062 55.8401 29.3985 55.3915 30.2783 55.3837C33.6351 55.3712 36.9981 55.3837 40.3486 55.3837C40.4723 55.3936 40.5954 55.4098 40.7174 55.4322Z" fill="white"/>
<path d="M57.2825 68.9391V59.197C57.4873 59.1782 57.6623 59.147 57.8357 59.147C61.0863 59.147 64.3368 59.147 67.5873 59.147C68.5905 59.147 68.9937 59.5595 68.9937 60.5722C68.9937 62.9111 68.9937 65.251 68.9937 67.592C68.9937 68.5297 68.5796 68.9985 67.7123 68.9985C64.3321 69.011 60.9519 68.9985 57.5716 68.9985C57.4739 68.9859 57.3773 68.9661 57.2825 68.9391Z" fill="white"/>
</g>
<defs>
<clipPath id="clip0_11_274">
<rect width="40" height="40" fill="white" transform="translate(29 29)"/>
</clipPath>
</defs>
</svg>
