<svg width="97" height="97" viewBox="0 0 97 97" fill="none" xmlns="http://www.w3.org/2000/svg">
<rect x="2" y="2" width="93" height="93" fill="#004379" stroke="#EDAB00" stroke-width="4"/>
<g clip-path="url(#clip0_4_436)">
<path d="M55.7043 72.9999C55.7043 70.2699 55.5813 67.6334 55.7337 65.0131C55.9522 61.2658 54.2259 59.5603 50.4555 59.8658C49.8163 59.9179 49.1699 59.8658 48.5271 59.8658C45.8916 59.8748 44.3857 61.3251 44.3618 63.9347C44.3379 66.6 44.3618 69.2671 44.3618 71.9324V72.9927H41.0817C38.8472 72.9927 36.6128 72.9927 34.3783 72.9927C32.9936 72.9927 32.8374 72.849 32.8356 71.5172C32.8356 68.4619 32.8356 65.4067 32.8356 62.3514V61.3018C32.213 61.3018 31.7006 61.2892 31.1827 61.3018C30.3728 61.3234 30.0018 60.9298 30.0018 60.157C30.0018 58.3885 30.0018 56.6212 30.0018 54.8551C30.0018 54.0626 30.4004 53.7462 31.2048 53.7445C32.0092 53.7427 32.5363 53.9242 32.54 54.8228V55.6998H34.4022C34.5858 55.1085 34.6887 54.4418 35.0266 53.9457C35.1754 53.7229 35.8182 53.766 36.2332 53.7768C37.6051 53.8253 37.0046 54.9378 37.2562 55.6891H39.2617C39.561 53.9673 39.5611 53.9673 41.8439 53.6851V47.837C41.3443 47.837 40.8393 47.8262 40.3342 47.837C39.7576 47.8531 39.0946 47.837 39.0175 47.1792C39.006 46.9294 39.045 46.6798 39.1323 46.4448C39.2196 46.2098 39.3534 45.994 39.5261 45.8097C42.6097 42.7275 45.7484 39.6991 48.8393 36.6241C49.1529 36.288 49.3384 35.8564 49.3645 35.402C49.4123 32.9164 49.3756 30.429 49.4031 27.9417C49.4031 27.6254 49.6161 27.3109 49.73 26.9963C50.0037 27.1275 50.2681 27.2803 50.5528 27.3845C50.7939 27.483 51.0504 27.5402 51.3113 27.5535C53.1478 27.5679 54.9844 27.5535 56.8209 27.5643C58.2112 27.5643 58.5014 27.8482 58.5087 29.1692C58.5087 29.7982 58.5087 30.4272 58.5087 31.0563C58.4885 32.1795 58.1873 32.4761 57.0119 32.4833C55.0835 32.4941 53.1552 32.4833 51.2286 32.4833C51.045 32.4833 50.8613 32.5048 50.5454 32.5246C50.5454 33.682 50.5454 34.8376 50.5565 35.9933C50.5799 36.1334 50.6534 36.2608 50.764 36.3527C54.0539 39.4859 57.3456 42.6154 60.6391 45.7414C61.0542 46.1368 61.5151 46.5016 61.236 47.1972C60.9568 47.8927 60.3581 47.8262 59.7796 47.8298C59.3278 47.8298 58.8742 47.8298 58.36 47.8298V53.7157C59.5868 53.8343 61.4527 53.2502 60.8466 55.6926H62.9991C63.2525 53.8109 63.2727 53.7786 64.2755 53.7624C65.3976 53.7463 65.4123 53.7624 65.7098 55.7214H67.5464C67.5684 55.4788 67.5996 55.2775 67.6051 55.0762C67.6419 53.8774 68.1873 53.4461 69.3701 53.8181C69.6419 53.9026 69.9633 54.3573 69.9724 54.6574C70.0275 56.5122 70.0055 58.3705 69.9982 60.2288C69.9982 60.9477 69.6143 61.3305 68.8522 61.3072C68.3342 61.2964 67.8145 61.3072 67.1497 61.3072V62.3046C67.1497 65.4198 67.1497 68.535 67.1497 71.6502C67.1497 72.8597 67.0009 72.9963 65.7704 72.9981C62.4555 73.0017 59.1515 72.9999 55.7043 72.9999Z" fill="white"/>
</g>
<defs>
<clipPath id="clip0_4_436">
<rect width="40" height="46" fill="white" transform="translate(30 27)"/>
</clipPath>
</defs>
</svg>
