<svg width="97" height="97" viewBox="0 0 97 97" fill="none" xmlns="http://www.w3.org/2000/svg">
<rect x="2" y="2" width="93" height="93" fill="#004379" stroke="#EDAB00" stroke-width="4"/>
<g clip-path="url(#clip0_4_352)">
<path d="M46.5399 43.1026C46.5077 43.0038 46.4835 42.9025 46.4678 42.7998C46.3571 40.6136 46.2358 40.4964 44.0651 40.4964C42.8347 40.4964 41.6044 40.4964 40.374 40.4964C38.9679 40.4964 38.5566 40.9024 38.546 42.3114C38.546 42.5425 38.546 42.7735 38.546 43.1201H36.8674C35.2574 43.1201 33.6456 43.1201 32.0356 43.1201C29.7506 43.1043 28.0333 41.4118 28.0087 39.1522C28.0087 38.3348 27.9929 37.5174 28.0087 36.7017C28.0298 35.7478 28.5167 35.2648 29.4905 35.256C31.5681 35.2368 33.6474 35.2368 35.7267 35.228C35.7513 35.228 35.7759 35.2052 35.9148 35.1352C35.9148 34.0115 35.9148 32.8266 35.9148 31.6347C35.9148 30.4427 36.3718 29.9964 37.5582 29.9946C40.8673 29.9946 44.1764 29.9946 47.4855 29.9946C48.6175 29.9946 49.0798 30.462 49.0886 31.5856C49.0886 32.7741 49.0886 33.9625 49.0886 35.2438H55.2C56.5728 35.2438 56.9928 35.6551 56.9963 36.994C56.9963 37.7519 57.0104 38.5098 56.9963 39.2694C56.9524 41.1947 55.4724 42.9573 53.5443 43.0641C51.2171 43.2006 48.8776 43.1026 46.5399 43.1026ZM46.4433 32.6778H38.6146V35.1807H46.4468L46.4433 32.6778Z" fill="white"/>
<path d="M70.3618 59.5116C68.1155 60.4025 65.9799 61.2461 63.8478 62.095C62.3292 62.6988 60.8299 63.3535 59.2902 63.8908C58.777 64.0627 58.2214 64.0627 57.7083 63.8908C53.4898 62.2543 49.3031 60.5547 45.1005 58.8885C44.4765 58.6417 44.0177 58.2864 44.0107 57.5757C44.0037 56.8651 44.4501 56.4923 45.0759 56.2455C49.3066 54.567 53.525 52.8622 57.768 51.2152C58.2531 51.0445 58.7823 51.0445 59.2673 51.2152C63.4858 52.8535 67.669 54.5547 71.8734 56.2158C72.6626 56.5273 73.0053 57.0402 73.0018 57.8768C72.986 61.1708 73.0018 64.4666 72.993 67.7624C72.993 68.7654 72.4763 69.3727 71.6625 69.3622C70.8487 69.3517 70.367 68.7496 70.3653 67.7309C70.3653 65.3103 70.3653 62.8896 70.3653 60.469L70.3618 59.5116Z" fill="white"/>
<path d="M28.0088 44.3978C29.756 45.7053 31.5998 45.8138 33.4946 45.7613C35.0167 45.7193 36.5389 45.7613 38.0645 45.7438C38.5479 45.7438 38.8308 45.8435 39.0857 46.3179C39.8028 47.6551 40.9805 48.3675 42.5114 48.3657C44.0423 48.364 45.2182 47.6516 45.9318 46.3126C46.1885 45.8313 46.4785 45.7368 46.9566 45.7438C48.4506 45.7665 49.9446 45.7263 51.4369 45.7595C53.3545 45.8033 55.2405 45.7473 57.0017 44.3838C57.0017 45.8208 57.0298 47.0565 56.9736 48.2904C56.963 48.4935 56.622 48.763 56.3637 48.8628C52.2495 50.5151 48.1295 52.1522 44.0037 53.7741C42.9778 54.1451 42.1213 54.8731 41.5921 55.8237C41.5086 55.94 41.4004 56.0366 41.2753 56.1067C41.1502 56.1769 41.0112 56.2189 40.868 56.2298C37.062 56.2554 33.2538 56.2595 29.4431 56.242C28.5643 56.242 28.0194 55.7589 28.0141 54.9275C27.9965 51.49 28.0088 48.0507 28.0088 44.3978Z" fill="white"/>
<path d="M49.2731 63.3867C51.6477 64.3284 53.9468 65.1668 56.1808 66.1487C57.7627 66.8488 59.2321 66.8488 60.8158 66.1574C63.0533 65.179 65.3488 64.3336 67.7129 63.3937C67.7129 65.9386 67.7392 68.3803 67.6971 70.8185C67.683 71.5886 67.0749 71.9947 66.1398 71.9964C62.6549 71.9964 59.1694 71.9964 55.6834 71.9964C54.1015 71.9964 52.5196 71.9964 50.9377 71.9964C49.7389 71.9964 49.2766 71.5483 49.2731 70.3809C49.2678 68.0863 49.2731 65.7916 49.2731 63.3867Z" fill="white"/>
<path d="M41.1931 43.1658H43.7681C43.8015 43.9832 44.1056 44.8828 43.2724 45.4412C43.0678 45.5556 42.8407 45.6245 42.6068 45.6432C42.3729 45.662 42.1377 45.63 41.9173 45.5497C40.8838 45.0963 41.2511 44.0969 41.1931 43.1658Z" fill="white"/>
</g>
<defs>
<clipPath id="clip0_4_352">
<rect width="45" height="42" fill="white" transform="translate(28 30)"/>
</clipPath>
</defs>
</svg>
