<svg width="97" height="97" viewBox="0 0 97 97" fill="none" xmlns="http://www.w3.org/2000/svg">
<rect x="2" y="2" width="93" height="93" fill="#004379" stroke="#EDAB00" stroke-width="4"/>
<g clip-path="url(#clip0_4_323)">
<path d="M27.2484 55.6914C29.2209 54.7043 30.8914 53.1819 33.2276 53.1967C33.1507 51.7614 33.0701 51.6743 31.8082 51.6466C28.409 51.5706 26.0072 49.1519 25.996 45.7997C25.996 45.0311 25.996 44.2606 25.996 43.3587C28.2459 43.4346 30.4958 42.9438 32.5713 44.1699C33.1188 42.7068 33.1188 42.7068 31.8758 41.9326C29.2284 40.2824 28.3846 37.1469 29.8677 34.4226C30.2933 33.641 30.7639 32.8798 31.2701 32.0149C32.5826 32.8094 33.9269 33.4799 35.1081 34.354C37.0805 35.8153 37.7161 38.4804 36.7037 40.8603C35.7887 43.016 35.1625 45.2107 35.185 47.5665C35.2506 54.9173 41.0441 61.179 48.4632 61.8976C50.5801 62.1191 52.7204 61.8865 54.7379 61.2158C56.7554 60.5452 58.6026 59.4522 60.1532 58.0116C61.7039 56.571 62.9214 54.8167 63.7226 52.8686C64.5238 50.9205 64.8899 48.8245 64.7957 46.7238C64.7188 44.6644 64.087 42.7438 63.2845 40.8529C62.8157 39.8014 62.6901 38.6317 62.9254 37.5065C63.1606 36.3813 63.7449 35.3565 64.597 34.5744C64.6599 34.506 64.7296 34.4439 64.8051 34.3892C66.0932 33.604 67.3831 32.8243 68.7424 32.002C69.6237 33.7151 70.8742 35.1171 70.8405 37.0821C70.8049 39.1582 69.9424 40.7584 68.1893 41.8974C66.9763 42.6845 66.9725 42.679 67.3625 44.1995C69.4249 42.9716 71.6898 43.4346 73.936 43.3624C73.936 44.6032 74.0878 45.7886 73.906 46.922C73.4616 49.6871 71.223 51.5243 68.3675 51.6503C66.9856 51.7114 66.9856 51.7114 66.695 53.1875C69.0612 53.1875 70.7692 54.6821 72.6948 55.6729C71.3261 59.4603 67.8762 62.807 62.5495 59.5048L61.4771 60.6827C63.6164 61.7717 64.2482 63.9904 65.4613 65.7739C62.4614 68.2798 57.7741 69.6855 54.7574 64.1479C51.616 65.0068 48.2962 64.9979 45.1596 64.1219C44.1865 66.1592 42.6922 67.6408 40.3035 67.9631C38.0255 68.2686 36.3381 66.963 34.4519 65.8832C35.7025 64.0423 36.3268 61.8347 38.4774 60.6975L37.2474 59.6066C33.0157 62.3291 29.2509 60.5771 27.2484 55.6914Z" fill="white"/>
<path d="M50.061 35.5836C43.5887 35.554 38.2021 40.8193 38.1908 47.1904C38.1779 48.7279 38.4738 50.2526 39.0613 51.6765C39.6487 53.1003 40.5162 54.3949 41.6134 55.4855C42.7107 56.5761 44.0159 57.4409 45.4537 58.03C46.8915 58.6191 48.4332 58.9207 49.9897 58.9175C51.5382 58.9233 53.0727 58.6275 54.5053 58.047C55.9379 57.4664 57.2406 56.6125 58.3387 55.5341C59.4369 54.4557 60.309 53.174 60.9052 51.7623C61.5013 50.3506 61.8098 48.8366 61.813 47.307C61.8205 40.8879 56.5332 35.6151 50.061 35.5836ZM54.0358 52.0983H52.5978V55.6172H50.4397V52.0983H44.7924V50.6352C44.7905 50.3534 44.8258 50.0726 44.8974 49.7999C44.91 49.7212 44.9313 49.6442 44.9612 49.5702C44.9722 49.5508 44.9792 49.5294 44.9818 49.5073L45.0024 49.4647L47.9648 38.8914H50.1229C50.0797 39.0451 50.0029 39.3433 49.8904 39.7896C49.3391 41.7824 48.8735 43.4542 48.4936 44.8049C48.2436 45.7384 48.0248 46.5187 47.8373 47.1459C47.6411 47.8423 47.5073 48.288 47.4361 48.4831C47.2884 48.9275 47.0666 49.3443 46.7799 49.7166L45.998 50.6426H49.086C49.3122 50.6352 49.5349 50.5856 49.7423 50.4963C49.9307 50.4206 50.0925 50.2918 50.2072 50.1259C50.3656 49.9111 50.4474 49.6506 50.4397 49.385V46.0514H52.5978V50.524H54.0433L54.0358 52.0983Z" fill="white"/>
</g>
<defs>
<clipPath id="clip0_4_323">
<rect width="48" height="36" fill="white" transform="translate(26 32)"/>
</clipPath>
</defs>
</svg>
