<svg width="97" height="97" viewBox="0 0 97 97" fill="none" xmlns="http://www.w3.org/2000/svg">
<rect x="2" y="2" width="93" height="93" fill="#004379" stroke="#EDAB00" stroke-width="4"/>
<g clip-path="url(#clip0_4_417)">
<path d="M38.5313 52.8225C35.3643 50.8418 34.4356 49.1379 35.1404 46.7379C35.7183 44.7665 37.6808 43.3193 39.7874 43.3099C41.9378 43.2989 43.9144 44.7446 44.4955 46.7519C45.194 49.1755 44.2934 50.8199 41.1061 52.8194C42.2025 52.8194 43.2112 52.8694 44.212 52.81C47.1534 52.6332 47.9271 54.3636 48.0555 56.3757C48.1996 58.6052 48.0884 60.8519 48.0884 63.155H31.347C31.347 61.4731 31.3329 59.788 31.347 58.103C31.3564 57.3504 31.347 56.5806 31.5036 55.8531C31.95 53.8191 33.264 52.8209 35.3377 52.8194L38.5313 52.8225Z" fill="white"/>
<path d="M50.7619 63.1595C50.7619 60.6656 50.574 58.2061 50.8183 55.7904C51.025 53.7564 52.4534 52.8177 54.4754 52.8177C55.506 52.8177 56.535 52.8177 57.5969 52.7488C56.0683 52.1152 54.9108 51.1358 54.3768 49.554C54.055 48.6089 54.0517 47.5847 54.3674 46.6376C54.6936 45.6549 55.3252 44.8018 56.1703 44.2025C57.0153 43.6031 58.0298 43.2887 59.0661 43.305C60.1168 43.3216 61.1342 43.676 61.9673 44.3158C62.8005 44.9555 63.405 45.8466 63.6912 46.8566C64.3411 49.2035 63.4171 50.8604 60.2846 52.8192C61.4123 52.8192 62.4131 52.8568 63.4171 52.8192C66.1439 52.6972 67.0304 54.2039 67.176 56.23C67.3326 58.5096 67.212 60.808 67.212 63.1611L50.7619 63.1595Z" fill="white"/>
<path d="M49.2146 38.1388C50.4159 38.1388 51.4966 38.0434 52.5491 38.1701C53.4148 38.2719 54.2551 38.5284 55.03 38.9274C55.5468 39.1996 55.8475 39.0932 56.2015 38.8179C57.3778 37.8995 57.7223 36.5617 57.9635 35.1896C58.0669 34.6029 58.0873 34.0005 58.1374 33.4044C58.2282 32.3092 58.9518 31.5754 59.9213 31.613C60.9519 31.6521 61.6348 32.4297 61.6019 33.5593C61.5424 35.6652 61.1853 37.7055 60.1046 39.5517C59.0239 41.3979 57.4216 42.4696 55.3025 42.8248C54.8608 42.8999 54.3142 43.1377 54.073 43.4787C53.3478 44.5035 52.7511 45.6191 52.0118 46.852C50.5427 46.852 48.823 46.8676 47.1048 46.8316C46.9822 46.8058 46.8676 46.751 46.7706 46.6718C46.6735 46.5926 46.597 46.4913 46.5473 46.3763C45.8268 44.0091 44.306 42.4164 41.9723 41.6263C41.5197 41.4698 41.4899 41.2351 41.5432 40.8737C41.7875 39.2294 43.0499 38.1467 44.7289 38.1404C45.797 38.1404 46.8668 38.1404 47.9506 38.095C46.9091 37.8025 46.0006 37.3127 45.3507 36.4381C44.7007 35.5635 44.3639 34.545 44.5675 33.431C44.7334 32.443 45.2546 31.5494 46.0332 30.9179C46.8118 30.2865 47.7943 29.9606 48.7964 30.0015C50.7792 30.0515 52.4394 31.5426 52.7621 33.5609C53.0769 35.515 51.755 37.2705 49.2146 38.1388Z" fill="white"/>
<path d="M69.9984 66.0479V70H30V66.0479H69.9984Z" fill="white"/>
</g>
<defs>
<clipPath id="clip0_4_417">
<rect width="40" height="40" fill="white" transform="translate(30 30)"/>
</clipPath>
</defs>
</svg>
