<svg width="22" height="22" viewBox="0 0 22 22" fill="none" xmlns="http://www.w3.org/2000/svg">
<g clip-path="url(#clip0_21_995)">
<path d="M20.2285 14.7848V7.06386C20.2285 6.48048 19.8455 5.96753 19.2797 5.82576C17.7492 5.44183 14.5862 4.76025 11.4227 4.76025C8.25961 4.76025 5.09611 5.44183 3.56565 5.82576C2.99988 5.96798 2.61682 6.48048 2.61682 7.06386V14.7848C2.61682 15.3682 2.99988 15.8812 3.56565 16.0229C5.09611 16.4069 8.25916 17.0884 11.4227 17.0884C14.5857 17.0884 17.7492 16.4069 19.2797 16.0229C19.8455 15.8807 20.2285 15.3682 20.2285 14.7848Z" stroke="#EDAB00" stroke-width="2.22463"/>
<path d="M10.7944 13.5216C10.7284 13.5677 10.651 13.5949 10.5706 13.6001C10.4902 13.6053 10.41 13.5884 10.3386 13.5512C10.2672 13.5139 10.2073 13.4578 10.1656 13.3889C10.1238 13.3201 10.1018 13.2411 10.1018 13.1605V8.68805C10.1018 8.60751 10.1238 8.5285 10.1656 8.45963C10.2073 8.39076 10.2672 8.33465 10.3386 8.29742C10.41 8.26019 10.4902 8.24327 10.5706 8.24848C10.651 8.2537 10.7284 8.28086 10.7944 8.32701L13.9896 10.5637C14.0475 10.6043 14.0949 10.6583 14.1275 10.721C14.1602 10.7838 14.1772 10.8535 14.1772 10.9243C14.1772 10.9951 14.1602 11.0648 14.1275 11.1275C14.0949 11.1903 14.0475 11.2443 13.9896 11.2849L10.7948 13.5216H10.7944Z" stroke="#EDAB00" stroke-width="2.22463" stroke-linejoin="round"/>
</g>
<defs>
<clipPath id="clip0_21_995">
<rect width="21.134" height="21.134" fill="white" transform="translate(0.855652 0.357422)"/>
</clipPath>
</defs>
</svg>
