<svg width="17" height="17" viewBox="0 0 17 17" fill="none" xmlns="http://www.w3.org/2000/svg">
<path d="M15.5592 4.63496C15.4982 4.39014 15.3787 4.16377 15.211 3.97524C15.0433 3.78672 14.8324 3.64168 14.5963 3.55254C12.3252 2.67598 8.69946 2.68262 8.50024 2.68262C8.30103 2.68262 4.67524 2.67598 2.40415 3.55254C2.1681 3.64168 1.95719 3.78672 1.78949 3.97524C1.62179 4.16377 1.5023 4.39014 1.44126 4.63496C1.2686 5.29238 1.06274 6.50098 1.06274 8.49981C1.06274 10.4986 1.2686 11.7072 1.44126 12.3646C1.5023 12.6095 1.62179 12.8358 1.78949 13.0244C1.95719 13.2129 2.1681 13.3579 2.40415 13.4471C4.58228 14.2904 7.99556 14.317 8.45376 14.317H8.54673C9.00493 14.317 12.4182 14.2904 14.5963 13.4471C14.8324 13.3579 15.0433 13.2129 15.211 13.0244C15.3787 12.8358 15.4982 12.6095 15.5592 12.3646C15.7319 11.7072 15.9377 10.4986 15.9377 8.49981C15.9377 6.50098 15.7319 5.29238 15.5592 4.63496ZM10.7713 8.71895L7.58384 10.8439C7.54156 10.8751 7.49022 10.8914 7.43774 10.8904C7.39375 10.8888 7.35067 10.8775 7.31157 10.8572C7.26913 10.8351 7.23363 10.8017 7.20901 10.7607C7.1844 10.7197 7.17163 10.6726 7.17212 10.6248V6.37481C7.17163 6.32696 7.1844 6.27992 7.20901 6.2389C7.23363 6.19787 7.26913 6.16446 7.31157 6.14238C7.35392 6.11979 7.4016 6.1091 7.44954 6.11144C7.49748 6.11378 7.54389 6.12906 7.58384 6.15567L10.7713 8.28067C10.8084 8.30399 10.8389 8.33633 10.8601 8.37465C10.8812 8.41297 10.8923 8.45603 10.8923 8.49981C10.8923 8.54358 10.8812 8.58664 10.8601 8.62496C10.8389 8.66328 10.8084 8.69562 10.7713 8.71895Z" fill="#004379"/>
</svg>
